<svg xmlns="http://www.w3.org/2000/svg" viewBox="0 0 24.84 33.14"><defs><style>.cls-1{fill:#ffbf00;}</style></defs><title>Ресурс 1</title><g id="Слой_2" data-name="Слой 2"><g id="Слой_1-2" data-name="Слой 1"><path class="cls-1" d="M21.66,20.68a4.94,4.94,0,0,0,1.8-.09C20.71,18,21.31,13.8,21.31,13.8c-.42-8.42-2.14-10.65-2.14-10.65-2-4.13-8.86-3-8.86-3C4,1.08,4.12,7.53,4.12,7.53c-.17,7.91-.67,8-.67,8L1.63,19c.52.94,4,1.55,4,1.55C.34,20.94,0,26.61,0,26.61v6.53H24.84V27.55A9.69,9.69,0,0,0,21.66,20.68ZM7.47,9.42a8.28,8.28,0,0,0,2.24.52l.17-1.29.43.6.17-.86.86,1.29c1.12.86,6.36-.34,6.36-.34a15.55,15.55,0,0,1-.26,4.55,8.58,8.58,0,0,1-2.87.89,1.07,1.07,0,1,0-.94,1.59,1,1,0,0,0,.94-.57l1.75-.19c-.69,2.15-3.78,2.92-3.78,2.92C6.79,16.64,7.47,9.42,7.47,9.42Zm5,22.12c-2.4-1-5.61-11.4-5.61-11.4.86-.06,2.92-1.72,2.92-1.72a6,6,0,0,0,2.86,1.49,8.08,8.08,0,0,0,2.87-1.27c.06.47,2.46,1.84,2.46,1.84C17.59,25.18,12.43,31.54,12.43,31.54Z"/></g></g></svg>